<svg viewBox="-16 -32 880 192" width="880" height="192" xmlns="http://www.w3.org/2000/svg"><desc>Generated with https://github.com/Platane/snk</desc><style>:root{--cb:#1b1f230a;--cs:purple;--ce:#ebedf0;--c0:#ebedf0;--c1:#9be9a8;--c2:#40c463;--c3:#30a14e;--c4:#216e39}.c{shape-rendering:geometricPrecision;fill:var(--ce);stroke-width:1px;stroke:var(--cb);animation:none 28900ms linear infinite;width:12px;height:12px}@keyframes c0{55.35%{fill:var(--c2)}55.37%,100%{fill:var(--ce)}}.c.c0{fill:var(--c2);animation-name:c0}@keyframes c1{4.14%{fill:var(--c1)}4.16%,100%{fill:var(--ce)}}.c.c1{fill:var(--c1);animation-name:c1}@keyframes c2{6.56%{fill:var(--c1)}6.58%,100%{fill:var(--ce)}}.c.c2{fill:var(--c1);animation-name:c2}@keyframes c3{12.45%{fill:var(--c1)}12.47%,100%{fill:var(--ce)}}.c.c3{fill:var(--c1);animation-name:c3}@keyframes c4{15.91%{fill:var(--c1)}15.93%,100%{fill:var(--ce)}}.c.c4{fill:var(--c1);animation-name:c4}@keyframes c5{12.1%{fill:var(--c1)}12.12%,100%{fill:var(--ce)}}.c.c5{fill:var(--c1);animation-name:c5}@keyframes c6{59.51%{fill:var(--c3)}59.53%,100%{fill:var(--ce)}}.c.c6{fill:var(--c3);animation-name:c6}@keyframes c7{13.48%{fill:var(--c1)}13.5%,100%{fill:var(--ce)}}.c.c7{fill:var(--c1);animation-name:c7}@keyframes c8{92.72%{fill:var(--c4)}92.74%,100%{fill:var(--ce)}}.c.c8{fill:var(--c4);animation-name:c8}@keyframes c9{93.07%{fill:var(--c4)}93.09%,100%{fill:var(--ce)}}.c.c9{fill:var(--c4);animation-name:c9}@keyframes ca{7.6%{fill:var(--c1)}7.62%,100%{fill:var(--ce)}}.c.ca{fill:var(--c1);animation-name:ca}@keyframes cb{7.26%{fill:var(--c1)}7.28%,100%{fill:var(--ce)}}.c.cb{fill:var(--c1);animation-name:cb}@keyframes cc{50.51%{fill:var(--c2)}50.53%,100%{fill:var(--ce)}}.c.cc{fill:var(--c2);animation-name:cc}@keyframes cd{50.16%{fill:var(--c2)}50.18%,100%{fill:var(--ce)}}.c.cd{fill:var(--c2);animation-name:cd}@keyframes ce{13.83%{fill:var(--c1)}13.85%,100%{fill:var(--ce)}}.c.ce{fill:var(--c1);animation-name:ce}@keyframes cf{8.64%{fill:var(--c1)}8.66%,100%{fill:var(--ce)}}.c.cf{fill:var(--c1);animation-name:cf}@keyframes cg{8.29%{fill:var(--c1)}8.31%,100%{fill:var(--ce)}}.c.cg{fill:var(--c1);animation-name:cg}@keyframes ch{7.95%{fill:var(--c1)}7.97%,100%{fill:var(--ce)}}.c.ch{fill:var(--c1);animation-name:ch}@keyframes ci{47.74%{fill:var(--c2)}47.76%,100%{fill:var(--ce)}}.c.ci{fill:var(--c2);animation-name:ci}@keyframes cj{10.72%{fill:var(--c1)}10.74%,100%{fill:var(--ce)}}.c.cj{fill:var(--c1);animation-name:cj}@keyframes ck{10.37%{fill:var(--c1)}10.39%,100%{fill:var(--ce)}}.c.ck{fill:var(--c1);animation-name:ck}@keyframes cl{8.99%{fill:var(--c1)}9.01%,100%{fill:var(--ce)}}.c.cl{fill:var(--c1);animation-name:cl}@keyframes cm{9.68%{fill:var(--c1)}9.7%,100%{fill:var(--ce)}}.c.cm{fill:var(--c1);animation-name:cm}@keyframes cn{9.33%{fill:var(--c1)}9.35%,100%{fill:var(--ce)}}.c.cn{fill:var(--c1);animation-name:cn}@keyframes co{46.36%{fill:var(--c2)}46.38%,100%{fill:var(--ce)}}.c.co{fill:var(--c2);animation-name:co}@keyframes cp{44.63%{fill:var(--c2)}44.65%,100%{fill:var(--ce)}}.c.cp{fill:var(--c2);animation-name:cp}@keyframes cq{20.06%{fill:var(--c1)}20.08%,100%{fill:var(--ce)}}.c.cq{fill:var(--c1);animation-name:cq}@keyframes cr{20.75%{fill:var(--c1)}20.77%,100%{fill:var(--ce)}}.c.cr{fill:var(--c1);animation-name:cr}@keyframes cs{37.71%{fill:var(--c2)}37.73%,100%{fill:var(--ce)}}.c.cs{fill:var(--c2);animation-name:cs}@keyframes ct{35.98%{fill:var(--c2)}36%,100%{fill:var(--ce)}}.c.ct{fill:var(--c2);animation-name:ct}@keyframes cu{74.38%{fill:var(--c3)}74.4%,100%{fill:var(--ce)}}.c.cu{fill:var(--c3);animation-name:cu}@keyframes cv{29.75%{fill:var(--c1)}29.77%,100%{fill:var(--ce)}}.c.cv{fill:var(--c1);animation-name:cv}@keyframes cw{34.59%{fill:var(--c2)}34.61%,100%{fill:var(--ce)}}.c.cw{fill:var(--c2);animation-name:cw}@keyframes cx{34.25%{fill:var(--c1)}34.27%,100%{fill:var(--ce)}}.c.cx{fill:var(--c1);animation-name:cx}@keyframes cy{71.27%{fill:var(--c3)}71.29%,100%{fill:var(--ce)}}.c.cy{fill:var(--c3);animation-name:cy}@keyframes cz{80.61%{fill:var(--c4)}80.63%,100%{fill:var(--ce)}}.c.cz{fill:var(--c4);animation-name:cz}@keyframes c10{80.27%{fill:var(--c4)}80.29%,100%{fill:var(--ce)}}.c.c10{fill:var(--c4);animation-name:c10}@keyframes c11{79.92%{fill:var(--c4)}79.94%,100%{fill:var(--ce)}}.c.c11{fill:var(--c4);animation-name:c11}@keyframes c12{34.94%{fill:var(--c2)}34.96%,100%{fill:var(--ce)}}.c.c12{fill:var(--c2);animation-name:c12}@keyframes c13{33.9%{fill:var(--c1)}33.92%,100%{fill:var(--ce)}}.c.c13{fill:var(--c1);animation-name:c13}@keyframes c14{32.17%{fill:var(--c1)}32.19%,100%{fill:var(--ce)}}.c.c14{fill:var(--c1);animation-name:c14}@keyframes c15{31.13%{fill:var(--c1)}31.15%,100%{fill:var(--ce)}}.c.c15{fill:var(--c1);animation-name:c15}@keyframes c16{77.15%{fill:var(--c3)}77.17%,100%{fill:var(--ce)}}.c.c16{fill:var(--c3);animation-name:c16}.u{transform-origin:0 0;transform:scale(0,1);animation:none linear 28900ms infinite}@keyframes u0{4.14%{transform:scale(0.000,1)}4.16%,6.56%{transform:scale(0.042,1)}6.58%,7.26%{transform:scale(0.083,1)}7.28%,7.6%{transform:scale(0.125,1)}7.62%,7.95%{transform:scale(0.167,1)}7.97%,8.29%{transform:scale(0.208,1)}8.31%,8.64%{transform:scale(0.250,1)}8.66%,8.99%{transform:scale(0.292,1)}9.01%,9.33%{transform:scale(0.333,1)}9.35%,9.68%{transform:scale(0.375,1)}9.7%,10.37%{transform:scale(0.417,1)}10.39%,10.72%{transform:scale(0.458,1)}10.74%,12.1%{transform:scale(0.500,1)}12.12%,12.45%{transform:scale(0.542,1)}12.47%,13.48%{transform:scale(0.583,1)}13.5%,13.83%{transform:scale(0.625,1)}13.85%,15.91%{transform:scale(0.667,1)}15.93%,20.06%{transform:scale(0.708,1)}20.08%,20.75%{transform:scale(0.750,1)}20.77%,29.75%{transform:scale(0.792,1)}29.77%,31.13%{transform:scale(0.833,1)}31.15%,32.17%{transform:scale(0.875,1)}32.19%,33.9%{transform:scale(0.917,1)}33.92%,34.25%{transform:scale(0.958,1)}34.27%,100%{transform:scale(1.000,1)}}.u.u0{fill:var(--c1);animation-name:u0;transform-origin:0.0px 0}@keyframes u1{34.59%{transform:scale(0.000,1)}34.61%,34.94%{transform:scale(0.100,1)}34.96%,35.98%{transform:scale(0.200,1)}36%,37.71%{transform:scale(0.300,1)}37.73%,44.63%{transform:scale(0.400,1)}44.65%,46.36%{transform:scale(0.500,1)}46.38%,47.74%{transform:scale(0.600,1)}47.76%,50.16%{transform:scale(0.700,1)}50.18%,50.51%{transform:scale(0.800,1)}50.53%,55.35%{transform:scale(0.900,1)}55.37%,100%{transform:scale(1.000,1)}}.u.u1{fill:var(--c2);animation-name:u1;transform-origin:473.3px 0}@keyframes u2{59.51%{transform:scale(0.000,1)}59.53%,71.27%{transform:scale(0.250,1)}71.29%,74.38%{transform:scale(0.500,1)}74.4%,77.15%{transform:scale(0.750,1)}77.17%,100%{transform:scale(1.000,1)}}.u.u2{fill:var(--c3);animation-name:u2;transform-origin:670.5px 0}@keyframes u3{79.92%{transform:scale(0.000,1)}79.94%,80.27%{transform:scale(0.200,1)}80.29%,80.61%{transform:scale(0.400,1)}80.63%,92.72%{transform:scale(0.600,1)}92.74%,93.07%{transform:scale(0.800,1)}93.09%,100%{transform:scale(1.000,1)}}.u.u3{fill:var(--c4);animation-name:u3;transform-origin:749.4px 0}.s{shape-rendering:geometricPrecision;fill:var(--cs);animation:none linear 28900ms infinite}@keyframes s0{0%,99.65%{transform:translate(0px,-16px)}0.35%{transform:translate(0px,0px)}1.73%{transform:translate(64px,0px)}3.46%{transform:translate(64px,80px)}3.81%{transform:translate(80px,80px)}4.15%{transform:translate(80px,96px)}7.27%{transform:translate(224px,96px)}7.61%{transform:translate(224px,80px)}7.96%,14.88%{transform:translate(240px,80px)}8.65%{transform:translate(240px,48px)}9.34%{transform:translate(272px,48px)}9.69%{transform:translate(272px,32px)}10.03%{transform:translate(256px,32px)}11.07%{transform:translate(256px,-16px)}11.76%{transform:translate(224px,-16px)}12.11%{transform:translate(224px,0px)}12.46%{transform:translate(208px,0px)}13.15%,16.61%,58.82%{transform:translate(208px,32px)}13.84%{transform:translate(240px,32px)}15.57%{transform:translate(208px,80px)}19.72%{transform:translate(352px,32px)}20.07%{transform:translate(352px,16px)}20.42%{transform:translate(368px,16px)}20.76%{transform:translate(368px,0px)}28.72%,70.93%{transform:translate(736px,0px)}30.1%{transform:translate(736px,64px)}31.14%{transform:translate(784px,64px)}31.83%{transform:translate(784px,32px)}32.18%{transform:translate(768px,32px)}33.56%{transform:translate(768px,96px)}34.26%{transform:translate(736px,96px)}34.6%{transform:translate(736px,80px)}34.95%{transform:translate(752px,80px)}35.29%{transform:translate(752px,64px)}44.29%{transform:translate(336px,64px)}44.64%{transform:translate(336px,80px)}44.98%{transform:translate(320px,80px)}45.33%{transform:translate(320px,64px)}47.06%{transform:translate(240px,64px)}47.75%{transform:translate(240px,96px)}48.1%{transform:translate(256px,96px)}49.83%{transform:translate(256px,16px)}50.17%{transform:translate(240px,16px)}50.52%{transform:translate(240px,0px)}53.98%{transform:translate(80px,0px)}55.36%{transform:translate(80px,64px)}58.13%{transform:translate(208px,64px)}59.17%{transform:translate(224px,32px)}59.52%,92.04%{transform:translate(224px,16px)}70.59%{transform:translate(736px,16px)}71.63%{transform:translate(768px,0px)}73.01%{transform:translate(768px,64px)}74.05%{transform:translate(720px,64px)}74.39%{transform:translate(720px,80px)}76.82%{transform:translate(832px,80px)}77.16%{transform:translate(832px,96px)}77.51%{transform:translate(816px,96px)}78.55%{transform:translate(816px,48px)}79.93%{transform:translate(752px,48px)}80.62%{transform:translate(752px,16px)}93.08%{transform:translate(224px,64px)}95.85%{transform:translate(96px,64px)}96.19%{transform:translate(96px,48px)}96.54%{transform:translate(80px,48px)}97.23%{transform:translate(80px,16px)}97.92%{transform:translate(48px,16px)}98.62%{transform:translate(48px,-16px)}}.s.s0{transform:translate(0px,-16px);animation-name:s0}@keyframes s1{0%,99.65%{transform:translate(16px,-16px)}0.35%{transform:translate(0px,-16px)}0.69%{transform:translate(0px,0px)}2.08%{transform:translate(64px,0px)}3.81%{transform:translate(64px,80px)}4.15%{transform:translate(80px,80px)}4.5%{transform:translate(80px,96px)}7.61%{transform:translate(224px,96px)}7.96%{transform:translate(224px,80px)}8.3%,15.22%{transform:translate(240px,80px)}9%{transform:translate(240px,48px)}9.69%{transform:translate(272px,48px)}10.03%{transform:translate(272px,32px)}10.38%{transform:translate(256px,32px)}11.42%{transform:translate(256px,-16px)}12.11%{transform:translate(224px,-16px)}12.46%{transform:translate(224px,0px)}12.8%{transform:translate(208px,0px)}13.49%,16.96%,59.17%{transform:translate(208px,32px)}14.19%{transform:translate(240px,32px)}15.92%{transform:translate(208px,80px)}20.07%{transform:translate(352px,32px)}20.42%{transform:translate(352px,16px)}20.76%{transform:translate(368px,16px)}21.11%{transform:translate(368px,0px)}29.07%,71.28%{transform:translate(736px,0px)}30.45%{transform:translate(736px,64px)}31.49%{transform:translate(784px,64px)}32.18%{transform:translate(784px,32px)}32.53%{transform:translate(768px,32px)}33.91%{transform:translate(768px,96px)}34.6%{transform:translate(736px,96px)}34.95%{transform:translate(736px,80px)}35.29%{transform:translate(752px,80px)}35.64%{transform:translate(752px,64px)}44.64%{transform:translate(336px,64px)}44.98%{transform:translate(336px,80px)}45.33%{transform:translate(320px,80px)}45.67%{transform:translate(320px,64px)}47.4%{transform:translate(240px,64px)}48.1%{transform:translate(240px,96px)}48.44%{transform:translate(256px,96px)}50.17%{transform:translate(256px,16px)}50.52%{transform:translate(240px,16px)}50.87%{transform:translate(240px,0px)}54.33%{transform:translate(80px,0px)}55.71%{transform:translate(80px,64px)}58.48%{transform:translate(208px,64px)}59.52%{transform:translate(224px,32px)}59.86%,92.39%{transform:translate(224px,16px)}70.93%{transform:translate(736px,16px)}71.97%{transform:translate(768px,0px)}73.36%{transform:translate(768px,64px)}74.39%{transform:translate(720px,64px)}74.74%{transform:translate(720px,80px)}77.16%{transform:translate(832px,80px)}77.51%{transform:translate(832px,96px)}77.85%{transform:translate(816px,96px)}78.89%{transform:translate(816px,48px)}80.28%{transform:translate(752px,48px)}80.97%{transform:translate(752px,16px)}93.43%{transform:translate(224px,64px)}96.19%{transform:translate(96px,64px)}96.54%{transform:translate(96px,48px)}96.89%{transform:translate(80px,48px)}97.58%{transform:translate(80px,16px)}98.27%{transform:translate(48px,16px)}98.96%{transform:translate(48px,-16px)}}.s.s1{transform:translate(16px,-16px);animation-name:s1}@keyframes s2{0%,99.65%{transform:translate(32px,-16px)}0.69%{transform:translate(0px,-16px)}1.04%{transform:translate(0px,0px)}2.42%{transform:translate(64px,0px)}4.15%{transform:translate(64px,80px)}4.5%{transform:translate(80px,80px)}4.84%{transform:translate(80px,96px)}7.96%{transform:translate(224px,96px)}8.3%{transform:translate(224px,80px)}8.65%,15.57%{transform:translate(240px,80px)}9.34%{transform:translate(240px,48px)}10.03%{transform:translate(272px,48px)}10.38%{transform:translate(272px,32px)}10.73%{transform:translate(256px,32px)}11.76%{transform:translate(256px,-16px)}12.46%{transform:translate(224px,-16px)}12.8%{transform:translate(224px,0px)}13.15%{transform:translate(208px,0px)}13.84%,17.3%,59.52%{transform:translate(208px,32px)}14.53%{transform:translate(240px,32px)}16.26%{transform:translate(208px,80px)}20.42%{transform:translate(352px,32px)}20.76%{transform:translate(352px,16px)}21.11%{transform:translate(368px,16px)}21.45%{transform:translate(368px,0px)}29.41%,71.63%{transform:translate(736px,0px)}30.8%{transform:translate(736px,64px)}31.83%{transform:translate(784px,64px)}32.53%{transform:translate(784px,32px)}32.87%{transform:translate(768px,32px)}34.26%{transform:translate(768px,96px)}34.95%{transform:translate(736px,96px)}35.29%{transform:translate(736px,80px)}35.64%{transform:translate(752px,80px)}35.99%{transform:translate(752px,64px)}44.98%{transform:translate(336px,64px)}45.33%{transform:translate(336px,80px)}45.67%{transform:translate(320px,80px)}46.02%{transform:translate(320px,64px)}47.75%{transform:translate(240px,64px)}48.44%{transform:translate(240px,96px)}48.79%{transform:translate(256px,96px)}50.52%{transform:translate(256px,16px)}50.87%{transform:translate(240px,16px)}51.21%{transform:translate(240px,0px)}54.67%{transform:translate(80px,0px)}56.06%{transform:translate(80px,64px)}58.82%{transform:translate(208px,64px)}59.86%{transform:translate(224px,32px)}60.21%,92.73%{transform:translate(224px,16px)}71.28%{transform:translate(736px,16px)}72.32%{transform:translate(768px,0px)}73.7%{transform:translate(768px,64px)}74.74%{transform:translate(720px,64px)}75.09%{transform:translate(720px,80px)}77.51%{transform:translate(832px,80px)}77.85%{transform:translate(832px,96px)}78.2%{transform:translate(816px,96px)}79.24%{transform:translate(816px,48px)}80.62%{transform:translate(752px,48px)}81.31%{transform:translate(752px,16px)}93.77%{transform:translate(224px,64px)}96.54%{transform:translate(96px,64px)}96.89%{transform:translate(96px,48px)}97.23%{transform:translate(80px,48px)}97.92%{transform:translate(80px,16px)}98.62%{transform:translate(48px,16px)}99.31%{transform:translate(48px,-16px)}}.s.s2{transform:translate(32px,-16px);animation-name:s2}@keyframes s3{0%,99.65%{transform:translate(48px,-16px)}1.04%{transform:translate(0px,-16px)}1.38%{transform:translate(0px,0px)}2.77%{transform:translate(64px,0px)}4.5%{transform:translate(64px,80px)}4.84%{transform:translate(80px,80px)}5.19%{transform:translate(80px,96px)}8.3%{transform:translate(224px,96px)}8.65%{transform:translate(224px,80px)}9%,15.92%{transform:translate(240px,80px)}9.69%{transform:translate(240px,48px)}10.38%{transform:translate(272px,48px)}10.73%{transform:translate(272px,32px)}11.07%{transform:translate(256px,32px)}12.11%{transform:translate(256px,-16px)}12.8%{transform:translate(224px,-16px)}13.15%{transform:translate(224px,0px)}13.49%{transform:translate(208px,0px)}14.19%,17.65%,59.86%{transform:translate(208px,32px)}14.88%{transform:translate(240px,32px)}16.61%{transform:translate(208px,80px)}20.76%{transform:translate(352px,32px)}21.11%{transform:translate(352px,16px)}21.45%{transform:translate(368px,16px)}21.8%{transform:translate(368px,0px)}29.76%,71.97%{transform:translate(736px,0px)}31.14%{transform:translate(736px,64px)}32.18%{transform:translate(784px,64px)}32.87%{transform:translate(784px,32px)}33.22%{transform:translate(768px,32px)}34.6%{transform:translate(768px,96px)}35.29%{transform:translate(736px,96px)}35.64%{transform:translate(736px,80px)}35.99%{transform:translate(752px,80px)}36.33%{transform:translate(752px,64px)}45.33%{transform:translate(336px,64px)}45.67%{transform:translate(336px,80px)}46.02%{transform:translate(320px,80px)}46.37%{transform:translate(320px,64px)}48.1%{transform:translate(240px,64px)}48.79%{transform:translate(240px,96px)}49.13%{transform:translate(256px,96px)}50.87%{transform:translate(256px,16px)}51.21%{transform:translate(240px,16px)}51.56%{transform:translate(240px,0px)}55.02%{transform:translate(80px,0px)}56.4%{transform:translate(80px,64px)}59.17%{transform:translate(208px,64px)}60.21%{transform:translate(224px,32px)}60.55%,93.08%{transform:translate(224px,16px)}71.63%{transform:translate(736px,16px)}72.66%{transform:translate(768px,0px)}74.05%{transform:translate(768px,64px)}75.09%{transform:translate(720px,64px)}75.43%{transform:translate(720px,80px)}77.85%{transform:translate(832px,80px)}78.2%{transform:translate(832px,96px)}78.55%{transform:translate(816px,96px)}79.58%{transform:translate(816px,48px)}80.97%{transform:translate(752px,48px)}81.66%{transform:translate(752px,16px)}94.12%{transform:translate(224px,64px)}96.89%{transform:translate(96px,64px)}97.23%{transform:translate(96px,48px)}97.58%{transform:translate(80px,48px)}98.27%{transform:translate(80px,16px)}98.96%{transform:translate(48px,16px)}}.s.s3{transform:translate(48px,-16px);animation-name:s3}</style><rect class="c" x="2" y="2" rx="2" ry="2"/><rect class="c" x="2" y="18" rx="2" ry="2"/><rect class="c" x="2" y="34" rx="2" ry="2"/><rect class="c" x="2" y="50" rx="2" ry="2"/><rect class="c" x="2" y="66" rx="2" ry="2"/><rect class="c" x="2" y="82" rx="2" ry="2"/><rect class="c" x="2" y="98" rx="2" ry="2"/><rect class="c" x="18" y="2" rx="2" ry="2"/><rect class="c" x="18" y="18" rx="2" ry="2"/><rect class="c" x="18" y="34" rx="2" ry="2"/><rect class="c" x="18" y="50" rx="2" ry="2"/><rect class="c" x="18" y="66" rx="2" ry="2"/><rect class="c" x="18" y="82" rx="2" ry="2"/><rect class="c" x="18" y="98" rx="2" ry="2"/><rect class="c" x="34" y="2" rx="2" ry="2"/><rect class="c" x="34" y="18" rx="2" ry="2"/><rect class="c" x="34" y="34" rx="2" ry="2"/><rect class="c" x="34" y="50" rx="2" ry="2"/><rect class="c" x="34" y="66" rx="2" ry="2"/><rect class="c" x="34" y="82" rx="2" ry="2"/><rect class="c" x="34" y="98" rx="2" ry="2"/><rect class="c" x="50" y="2" rx="2" ry="2"/><rect class="c" x="50" y="18" rx="2" ry="2"/><rect class="c" x="50" y="34" rx="2" ry="2"/><rect class="c" x="50" y="50" rx="2" ry="2"/><rect class="c" x="50" y="66" rx="2" ry="2"/><rect class="c" x="50" y="82" rx="2" ry="2"/><rect class="c" x="50" y="98" rx="2" ry="2"/><rect class="c" x="66" y="2" rx="2" ry="2"/><rect class="c" x="66" y="18" rx="2" ry="2"/><rect class="c" x="66" y="34" rx="2" ry="2"/><rect class="c" x="66" y="50" rx="2" ry="2"/><rect class="c" x="66" y="66" rx="2" ry="2"/><rect class="c" x="66" y="82" rx="2" ry="2"/><rect class="c" x="66" y="98" rx="2" ry="2"/><rect class="c" x="82" y="2" rx="2" ry="2"/><rect class="c" x="82" y="18" rx="2" ry="2"/><rect class="c" x="82" y="34" rx="2" ry="2"/><rect class="c" x="82" y="50" rx="2" ry="2"/><rect class="c c0" x="82" y="66" rx="2" ry="2"/><rect class="c" x="82" y="82" rx="2" ry="2"/><rect class="c c1" x="82" y="98" rx="2" ry="2"/><rect class="c" x="98" y="2" rx="2" ry="2"/><rect class="c" x="98" y="18" rx="2" ry="2"/><rect class="c" x="98" y="34" rx="2" ry="2"/><rect class="c" x="98" y="50" rx="2" ry="2"/><rect class="c" x="98" y="66" rx="2" ry="2"/><rect class="c" x="98" y="82" rx="2" ry="2"/><rect class="c" x="98" y="98" rx="2" ry="2"/><rect class="c" x="114" y="2" rx="2" ry="2"/><rect class="c" x="114" y="18" rx="2" ry="2"/><rect class="c" x="114" y="34" rx="2" ry="2"/><rect class="c" x="114" y="50" rx="2" ry="2"/><rect class="c" x="114" y="66" rx="2" ry="2"/><rect class="c" x="114" y="82" rx="2" ry="2"/><rect class="c" x="114" y="98" rx="2" ry="2"/><rect class="c" x="130" y="2" rx="2" ry="2"/><rect class="c" x="130" y="18" rx="2" ry="2"/><rect class="c" x="130" y="34" rx="2" ry="2"/><rect class="c" x="130" y="50" rx="2" ry="2"/><rect class="c" x="130" y="66" rx="2" ry="2"/><rect class="c" x="130" y="82" rx="2" ry="2"/><rect class="c" x="130" y="98" rx="2" ry="2"/><rect class="c" x="146" y="2" rx="2" ry="2"/><rect class="c" x="146" y="18" rx="2" ry="2"/><rect class="c" x="146" y="34" rx="2" ry="2"/><rect class="c" x="146" y="50" rx="2" ry="2"/><rect class="c" x="146" y="66" rx="2" ry="2"/><rect class="c" x="146" y="82" rx="2" ry="2"/><rect class="c" x="146" y="98" rx="2" ry="2"/><rect class="c" x="162" y="2" rx="2" ry="2"/><rect class="c" x="162" y="18" rx="2" ry="2"/><rect class="c" x="162" y="34" rx="2" ry="2"/><rect class="c" x="162" y="50" rx="2" ry="2"/><rect class="c" x="162" y="66" rx="2" ry="2"/><rect class="c" x="162" y="82" rx="2" ry="2"/><rect class="c" x="162" y="98" rx="2" ry="2"/><rect class="c" x="178" y="2" rx="2" ry="2"/><rect class="c" x="178" y="18" rx="2" ry="2"/><rect class="c" x="178" y="34" rx="2" ry="2"/><rect class="c" x="178" y="50" rx="2" ry="2"/><rect class="c" x="178" y="66" rx="2" ry="2"/><rect class="c" x="178" y="82" rx="2" ry="2"/><rect class="c" x="178" y="98" rx="2" ry="2"/><rect class="c" x="194" y="2" rx="2" ry="2"/><rect class="c" x="194" y="18" rx="2" ry="2"/><rect class="c" x="194" y="34" rx="2" ry="2"/><rect class="c" x="194" y="50" rx="2" ry="2"/><rect class="c" x="194" y="66" rx="2" ry="2"/><rect class="c" x="194" y="82" rx="2" ry="2"/><rect class="c c2" x="194" y="98" rx="2" ry="2"/><rect class="c c3" x="210" y="2" rx="2" ry="2"/><rect class="c" x="210" y="18" rx="2" ry="2"/><rect class="c" x="210" y="34" rx="2" ry="2"/><rect class="c" x="210" y="50" rx="2" ry="2"/><rect class="c c4" x="210" y="66" rx="2" ry="2"/><rect class="c" x="210" y="82" rx="2" ry="2"/><rect class="c" x="210" y="98" rx="2" ry="2"/><rect class="c c5" x="226" y="2" rx="2" ry="2"/><rect class="c c6" x="226" y="18" rx="2" ry="2"/><rect class="c c7" x="226" y="34" rx="2" ry="2"/><rect class="c c8" x="226" y="50" rx="2" ry="2"/><rect class="c c9" x="226" y="66" rx="2" ry="2"/><rect class="c ca" x="226" y="82" rx="2" ry="2"/><rect class="c cb" x="226" y="98" rx="2" ry="2"/><rect class="c cc" x="242" y="2" rx="2" ry="2"/><rect class="c cd" x="242" y="18" rx="2" ry="2"/><rect class="c ce" x="242" y="34" rx="2" ry="2"/><rect class="c cf" x="242" y="50" rx="2" ry="2"/><rect class="c cg" x="242" y="66" rx="2" ry="2"/><rect class="c ch" x="242" y="82" rx="2" ry="2"/><rect class="c ci" x="242" y="98" rx="2" ry="2"/><rect class="c cj" x="258" y="2" rx="2" ry="2"/><rect class="c ck" x="258" y="18" rx="2" ry="2"/><rect class="c" x="258" y="34" rx="2" ry="2"/><rect class="c cl" x="258" y="50" rx="2" ry="2"/><rect class="c" x="258" y="66" rx="2" ry="2"/><rect class="c" x="258" y="82" rx="2" ry="2"/><rect class="c" x="258" y="98" rx="2" ry="2"/><rect class="c" x="274" y="2" rx="2" ry="2"/><rect class="c" x="274" y="18" rx="2" ry="2"/><rect class="c cm" x="274" y="34" rx="2" ry="2"/><rect class="c cn" x="274" y="50" rx="2" ry="2"/><rect class="c co" x="274" y="66" rx="2" ry="2"/><rect class="c" x="274" y="82" rx="2" ry="2"/><rect class="c" x="274" y="98" rx="2" ry="2"/><rect class="c" x="290" y="2" rx="2" ry="2"/><rect class="c" x="290" y="18" rx="2" ry="2"/><rect class="c" x="290" y="34" rx="2" ry="2"/><rect class="c" x="290" y="50" rx="2" ry="2"/><rect class="c" x="290" y="66" rx="2" ry="2"/><rect class="c" x="290" y="82" rx="2" ry="2"/><rect class="c" x="290" y="98" rx="2" ry="2"/><rect class="c" x="306" y="2" rx="2" ry="2"/><rect class="c" x="306" y="18" rx="2" ry="2"/><rect class="c" x="306" y="34" rx="2" ry="2"/><rect class="c" x="306" y="50" rx="2" ry="2"/><rect class="c" x="306" y="66" rx="2" ry="2"/><rect class="c" x="306" y="82" rx="2" ry="2"/><rect class="c" x="306" y="98" rx="2" ry="2"/><rect class="c" x="322" y="2" rx="2" ry="2"/><rect class="c" x="322" y="18" rx="2" ry="2"/><rect class="c" x="322" y="34" rx="2" ry="2"/><rect class="c" x="322" y="50" rx="2" ry="2"/><rect class="c" x="322" y="66" rx="2" ry="2"/><rect class="c" x="322" y="82" rx="2" ry="2"/><rect class="c" x="322" y="98" rx="2" ry="2"/><rect class="c" x="338" y="2" rx="2" ry="2"/><rect class="c" x="338" y="18" rx="2" ry="2"/><rect class="c" x="338" y="34" rx="2" ry="2"/><rect class="c" x="338" y="50" rx="2" ry="2"/><rect class="c" x="338" y="66" rx="2" ry="2"/><rect class="c cp" x="338" y="82" rx="2" ry="2"/><rect class="c" x="338" y="98" rx="2" ry="2"/><rect class="c" x="354" y="2" rx="2" ry="2"/><rect class="c cq" x="354" y="18" rx="2" ry="2"/><rect class="c" x="354" y="34" rx="2" ry="2"/><rect class="c" x="354" y="50" rx="2" ry="2"/><rect class="c" x="354" y="66" rx="2" ry="2"/><rect class="c" x="354" y="82" rx="2" ry="2"/><rect class="c" x="354" y="98" rx="2" ry="2"/><rect class="c cr" x="370" y="2" rx="2" ry="2"/><rect class="c" x="370" y="18" rx="2" ry="2"/><rect class="c" x="370" y="34" rx="2" ry="2"/><rect class="c" x="370" y="50" rx="2" ry="2"/><rect class="c" x="370" y="66" rx="2" ry="2"/><rect class="c" x="370" y="82" rx="2" ry="2"/><rect class="c" x="370" y="98" rx="2" ry="2"/><rect class="c" x="386" y="2" rx="2" ry="2"/><rect class="c" x="386" y="18" rx="2" ry="2"/><rect class="c" x="386" y="34" rx="2" ry="2"/><rect class="c" x="386" y="50" rx="2" ry="2"/><rect class="c" x="386" y="66" rx="2" ry="2"/><rect class="c" x="386" y="82" rx="2" ry="2"/><rect class="c" x="386" y="98" rx="2" ry="2"/><rect class="c" x="402" y="2" rx="2" ry="2"/><rect class="c" x="402" y="18" rx="2" ry="2"/><rect class="c" x="402" y="34" rx="2" ry="2"/><rect class="c" x="402" y="50" rx="2" ry="2"/><rect class="c" x="402" y="66" rx="2" ry="2"/><rect class="c" x="402" y="82" rx="2" ry="2"/><rect class="c" x="402" y="98" rx="2" ry="2"/><rect class="c" x="418" y="2" rx="2" ry="2"/><rect class="c" x="418" y="18" rx="2" ry="2"/><rect class="c" x="418" y="34" rx="2" ry="2"/><rect class="c" x="418" y="50" rx="2" ry="2"/><rect class="c" x="418" y="66" rx="2" ry="2"/><rect class="c" x="418" y="82" rx="2" ry="2"/><rect class="c" x="418" y="98" rx="2" ry="2"/><rect class="c" x="434" y="2" rx="2" ry="2"/><rect class="c" x="434" y="18" rx="2" ry="2"/><rect class="c" x="434" y="34" rx="2" ry="2"/><rect class="c" x="434" y="50" rx="2" ry="2"/><rect class="c" x="434" y="66" rx="2" ry="2"/><rect class="c" x="434" y="82" rx="2" ry="2"/><rect class="c" x="434" y="98" rx="2" ry="2"/><rect class="c" x="450" y="2" rx="2" ry="2"/><rect class="c" x="450" y="18" rx="2" ry="2"/><rect class="c" x="450" y="34" rx="2" ry="2"/><rect class="c" x="450" y="50" rx="2" ry="2"/><rect class="c" x="450" y="66" rx="2" ry="2"/><rect class="c" x="450" y="82" rx="2" ry="2"/><rect class="c" x="450" y="98" rx="2" ry="2"/><rect class="c" x="466" y="2" rx="2" ry="2"/><rect class="c" x="466" y="18" rx="2" ry="2"/><rect class="c" x="466" y="34" rx="2" ry="2"/><rect class="c" x="466" y="50" rx="2" ry="2"/><rect class="c" x="466" y="66" rx="2" ry="2"/><rect class="c" x="466" y="82" rx="2" ry="2"/><rect class="c" x="466" y="98" rx="2" ry="2"/><rect class="c" x="482" y="2" rx="2" ry="2"/><rect class="c" x="482" y="18" rx="2" ry="2"/><rect class="c" x="482" y="34" rx="2" ry="2"/><rect class="c" x="482" y="50" rx="2" ry="2"/><rect class="c" x="482" y="66" rx="2" ry="2"/><rect class="c" x="482" y="82" rx="2" ry="2"/><rect class="c" x="482" y="98" rx="2" ry="2"/><rect class="c" x="498" y="2" rx="2" ry="2"/><rect class="c" x="498" y="18" rx="2" ry="2"/><rect class="c" x="498" y="34" rx="2" ry="2"/><rect class="c" x="498" y="50" rx="2" ry="2"/><rect class="c" x="498" y="66" rx="2" ry="2"/><rect class="c" x="498" y="82" rx="2" ry="2"/><rect class="c" x="498" y="98" rx="2" ry="2"/><rect class="c" x="514" y="2" rx="2" ry="2"/><rect class="c" x="514" y="18" rx="2" ry="2"/><rect class="c" x="514" y="34" rx="2" ry="2"/><rect class="c" x="514" y="50" rx="2" ry="2"/><rect class="c" x="514" y="66" rx="2" ry="2"/><rect class="c" x="514" y="82" rx="2" ry="2"/><rect class="c" x="514" y="98" rx="2" ry="2"/><rect class="c" x="530" y="2" rx="2" ry="2"/><rect class="c" x="530" y="18" rx="2" ry="2"/><rect class="c" x="530" y="34" rx="2" ry="2"/><rect class="c" x="530" y="50" rx="2" ry="2"/><rect class="c" x="530" y="66" rx="2" ry="2"/><rect class="c" x="530" y="82" rx="2" ry="2"/><rect class="c" x="530" y="98" rx="2" ry="2"/><rect class="c" x="546" y="2" rx="2" ry="2"/><rect class="c" x="546" y="18" rx="2" ry="2"/><rect class="c" x="546" y="34" rx="2" ry="2"/><rect class="c" x="546" y="50" rx="2" ry="2"/><rect class="c" x="546" y="66" rx="2" ry="2"/><rect class="c" x="546" y="82" rx="2" ry="2"/><rect class="c" x="546" y="98" rx="2" ry="2"/><rect class="c" x="562" y="2" rx="2" ry="2"/><rect class="c" x="562" y="18" rx="2" ry="2"/><rect class="c" x="562" y="34" rx="2" ry="2"/><rect class="c" x="562" y="50" rx="2" ry="2"/><rect class="c" x="562" y="66" rx="2" ry="2"/><rect class="c" x="562" y="82" rx="2" ry="2"/><rect class="c" x="562" y="98" rx="2" ry="2"/><rect class="c" x="578" y="2" rx="2" ry="2"/><rect class="c" x="578" y="18" rx="2" ry="2"/><rect class="c" x="578" y="34" rx="2" ry="2"/><rect class="c" x="578" y="50" rx="2" ry="2"/><rect class="c" x="578" y="66" rx="2" ry="2"/><rect class="c" x="578" y="82" rx="2" ry="2"/><rect class="c" x="578" y="98" rx="2" ry="2"/><rect class="c" x="594" y="2" rx="2" ry="2"/><rect class="c" x="594" y="18" rx="2" ry="2"/><rect class="c" x="594" y="34" rx="2" ry="2"/><rect class="c" x="594" y="50" rx="2" ry="2"/><rect class="c" x="594" y="66" rx="2" ry="2"/><rect class="c" x="594" y="82" rx="2" ry="2"/><rect class="c" x="594" y="98" rx="2" ry="2"/><rect class="c" x="610" y="2" rx="2" ry="2"/><rect class="c" x="610" y="18" rx="2" ry="2"/><rect class="c" x="610" y="34" rx="2" ry="2"/><rect class="c" x="610" y="50" rx="2" ry="2"/><rect class="c" x="610" y="66" rx="2" ry="2"/><rect class="c" x="610" y="82" rx="2" ry="2"/><rect class="c" x="610" y="98" rx="2" ry="2"/><rect class="c" x="626" y="2" rx="2" ry="2"/><rect class="c" x="626" y="18" rx="2" ry="2"/><rect class="c" x="626" y="34" rx="2" ry="2"/><rect class="c" x="626" y="50" rx="2" ry="2"/><rect class="c" x="626" y="66" rx="2" ry="2"/><rect class="c" x="626" y="82" rx="2" ry="2"/><rect class="c" x="626" y="98" rx="2" ry="2"/><rect class="c" x="642" y="2" rx="2" ry="2"/><rect class="c" x="642" y="18" rx="2" ry="2"/><rect class="c" x="642" y="34" rx="2" ry="2"/><rect class="c" x="642" y="50" rx="2" ry="2"/><rect class="c cs" x="642" y="66" rx="2" ry="2"/><rect class="c" x="642" y="82" rx="2" ry="2"/><rect class="c" x="642" y="98" rx="2" ry="2"/><rect class="c" x="658" y="2" rx="2" ry="2"/><rect class="c" x="658" y="18" rx="2" ry="2"/><rect class="c" x="658" y="34" rx="2" ry="2"/><rect class="c" x="658" y="50" rx="2" ry="2"/><rect class="c" x="658" y="66" rx="2" ry="2"/><rect class="c" x="658" y="82" rx="2" ry="2"/><rect class="c" x="658" y="98" rx="2" ry="2"/><rect class="c" x="674" y="2" rx="2" ry="2"/><rect class="c" x="674" y="18" rx="2" ry="2"/><rect class="c" x="674" y="34" rx="2" ry="2"/><rect class="c" x="674" y="50" rx="2" ry="2"/><rect class="c" x="674" y="66" rx="2" ry="2"/><rect class="c" x="674" y="82" rx="2" ry="2"/><rect class="c" x="674" y="98" rx="2" ry="2"/><rect class="c" x="690" y="2" rx="2" ry="2"/><rect class="c" x="690" y="18" rx="2" ry="2"/><rect class="c" x="690" y="34" rx="2" ry="2"/><rect class="c" x="690" y="50" rx="2" ry="2"/><rect class="c" x="690" y="66" rx="2" ry="2"/><rect class="c" x="690" y="82" rx="2" ry="2"/><rect class="c" x="690" y="98" rx="2" ry="2"/><rect class="c" x="706" y="2" rx="2" ry="2"/><rect class="c" x="706" y="18" rx="2" ry="2"/><rect class="c" x="706" y="34" rx="2" ry="2"/><rect class="c" x="706" y="50" rx="2" ry="2"/><rect class="c" x="706" y="66" rx="2" ry="2"/><rect class="c" x="706" y="82" rx="2" ry="2"/><rect class="c" x="706" y="98" rx="2" ry="2"/><rect class="c" x="722" y="2" rx="2" ry="2"/><rect class="c" x="722" y="18" rx="2" ry="2"/><rect class="c" x="722" y="34" rx="2" ry="2"/><rect class="c" x="722" y="50" rx="2" ry="2"/><rect class="c ct" x="722" y="66" rx="2" ry="2"/><rect class="c cu" x="722" y="82" rx="2" ry="2"/><rect class="c" x="722" y="98" rx="2" ry="2"/><rect class="c" x="738" y="2" rx="2" ry="2"/><rect class="c" x="738" y="18" rx="2" ry="2"/><rect class="c" x="738" y="34" rx="2" ry="2"/><rect class="c cv" x="738" y="50" rx="2" ry="2"/><rect class="c" x="738" y="66" rx="2" ry="2"/><rect class="c cw" x="738" y="82" rx="2" ry="2"/><rect class="c cx" x="738" y="98" rx="2" ry="2"/><rect class="c cy" x="754" y="2" rx="2" ry="2"/><rect class="c cz" x="754" y="18" rx="2" ry="2"/><rect class="c c10" x="754" y="34" rx="2" ry="2"/><rect class="c c11" x="754" y="50" rx="2" ry="2"/><rect class="c" x="754" y="66" rx="2" ry="2"/><rect class="c c12" x="754" y="82" rx="2" ry="2"/><rect class="c c13" x="754" y="98" rx="2" ry="2"/><rect class="c" x="770" y="2" rx="2" ry="2"/><rect class="c" x="770" y="18" rx="2" ry="2"/><rect class="c c14" x="770" y="34" rx="2" ry="2"/><rect class="c" x="770" y="50" rx="2" ry="2"/><rect class="c" x="770" y="66" rx="2" ry="2"/><rect class="c" x="770" y="82" rx="2" ry="2"/><rect class="c" x="770" y="98" rx="2" ry="2"/><rect class="c" x="786" y="2" rx="2" ry="2"/><rect class="c" x="786" y="18" rx="2" ry="2"/><rect class="c" x="786" y="34" rx="2" ry="2"/><rect class="c" x="786" y="50" rx="2" ry="2"/><rect class="c c15" x="786" y="66" rx="2" ry="2"/><rect class="c" x="786" y="82" rx="2" ry="2"/><rect class="c" x="786" y="98" rx="2" ry="2"/><rect class="c" x="802" y="2" rx="2" ry="2"/><rect class="c" x="802" y="18" rx="2" ry="2"/><rect class="c" x="802" y="34" rx="2" ry="2"/><rect class="c" x="802" y="50" rx="2" ry="2"/><rect class="c" x="802" y="66" rx="2" ry="2"/><rect class="c" x="802" y="82" rx="2" ry="2"/><rect class="c" x="802" y="98" rx="2" ry="2"/><rect class="c" x="818" y="2" rx="2" ry="2"/><rect class="c" x="818" y="18" rx="2" ry="2"/><rect class="c" x="818" y="34" rx="2" ry="2"/><rect class="c" x="818" y="50" rx="2" ry="2"/><rect class="c" x="818" y="66" rx="2" ry="2"/><rect class="c" x="818" y="82" rx="2" ry="2"/><rect class="c" x="818" y="98" rx="2" ry="2"/><rect class="c" x="834" y="2" rx="2" ry="2"/><rect class="c" x="834" y="18" rx="2" ry="2"/><rect class="c" x="834" y="34" rx="2" ry="2"/><rect class="c" x="834" y="50" rx="2" ry="2"/><rect class="c" x="834" y="66" rx="2" ry="2"/><rect class="c" x="834" y="82" rx="2" ry="2"/><rect class="c c16" x="834" y="98" rx="2" ry="2"/><rect class="u u0" height="12" width="473.9" x="0.0" y="144"/><rect class="u u1" height="12" width="197.8" x="473.3" y="144"/><rect class="u u2" height="12" width="79.5" x="670.5" y="144"/><rect class="u u3" height="12" width="99.2" x="749.4" y="144"/><rect class="s s0" x="0.8" y="0.8" width="14.4" height="14.4" rx="4.5" ry="4.5"/><rect class="s s1" x="1.8" y="1.8" width="12.3" height="12.3" rx="4.1" ry="4.1"/><rect class="s s2" x="2.6" y="2.6" width="10.8" height="10.8" rx="3.6" ry="3.6"/><rect class="s s3" x="3.0" y="3.0" width="9.9" height="9.9" rx="3.3" ry="3.3"/></svg>